<svg xmlns="http://www.w3.org/2000/svg" width="12" height="13" overflow="visible"><style>.st3{opacity:.7;fill:#fff}</style><g opacity=".7" fill="#fff"><path d="M9 13H3c-1.65 0-3-1.35-3-3V3c0-1.65 1.35-3 3-3h6c1.65 0 3 1.35 3 3v7c0 1.65-1.35 3-3 3z" fill-opacity=".2"/><path d="M9 1c1.1 0 2 .9 2 2v7c0 1.1-.9 2-2 2H3c-1.1 0-2-.9-2-2V3c0-1.1.9-2 2-2h6m0-1H3C1.35 0 0 1.35 0 3v7c0 1.65 1.35 3 3 3h6c1.65 0 3-1.35 3-3V3c0-1.65-1.35-3-3-3z"/></g><path class="st3" d="M3.08 3.22h6v1.37h-6zM3.08 5.95h6v1.37h-6zM3.08 8.68h6v1.37h-6z"/></svg>